<?xml version="1.0" encoding="UTF-8"?>
<!-- ember_big frame 5 (tell), hold 4 ticks @24fps; colours are palette.env tokens -->
<svg xmlns="http://www.w3.org/2000/svg" width="128" height="128" viewBox="0 0 128 128">
<defs>
<filter id="glowS" x="-100%" y="-100%" width="300%" height="300%"><feGaussianBlur stdDeviation="2"/></filter>
<filter id="glowM" x="-100%" y="-100%" width="300%" height="300%"><feGaussianBlur stdDeviation="5"/></filter>
<filter id="glowL" x="-100%" y="-100%" width="300%" height="300%"><feGaussianBlur stdDeviation="12"/></filter>
</defs>
<g id="base"><clipPath id="c84"><path d="M45.6,28 L25.6,-12.3 L20.6,15.2 L33.9,38.6 Z"/></clipPath><polygon points="45.6,28 25.6,-12.3 20.6,15.2 33.9,38.6" fill="@CHAR_HI@" /><clipPath id="c85"><path d="M82.4,28 L102.4,-12.3 L107.4,15.2 L94.1,38.6 Z"/></clipPath><polygon points="82.4,28 102.4,-12.3 107.4,15.2 94.1,38.6" fill="@CHAR_HI@" /><clipPath id="c86"><path d="M42.3,81 L85.7,81 L80.7,121.2 L64,130.8 L47.3,121.2 Z"/></clipPath><polygon points="42.3,81 85.7,81 80.7,121.2 64,130.8 47.3,121.2" fill="@GUN@" /><polygon points="42.3,78.8 38.9,78.8 38.9,106.8 42.3,106.8" fill="@GUN_HI@" /><polygon points="85.7,78.8 89.1,78.8 89.1,106.8 85.7,106.8" fill="@GUN_HI@" /></g>
<g id="shadow"><path d="M45.6,28 L25.6,-12.3 L20.6,15.2 L33.9,38.6 Z M48.6,25 L28.6,-15.3 L23.6,12.2 L36.9,35.6 Z" fill="@CHAR@" fill-rule="evenodd" clip-path="url(#c84)"/><path d="M82.4,28 L102.4,-12.3 L107.4,15.2 L94.1,38.6 Z M79.4,25 L99.4,-15.3 L104.4,12.2 L91.1,35.6 Z" fill="@CHAR@" fill-rule="evenodd" clip-path="url(#c85)"/><path d="M42.3,81 L85.7,81 L80.7,121.2 L64,130.8 L47.3,121.2 Z M38.3,77 L81.7,77 L76.7,117.2 L60,126.8 L43.3,117.2 Z" fill="@GUN_SH@" fill-rule="evenodd" clip-path="url(#c86)"/><polygon points="65.7,70.4 94.1,70.4 94.1,134 65.7,134" fill="@GUN_SH@" clip-path="url(#c86)"/></g>
<g id="highlight"><path d="M42.3,81 L85.7,81 L80.7,121.2 L64,130.8 L47.3,121.2 Z M45.8,84.5 L89.2,84.5 L84.2,124.7 L67.5,134.3 L50.8,124.7 Z" fill="@GUN_HI@" fill-rule="evenodd" clip-path="url(#c86)"/></g>
<g id="ink"><polygon points="45.6,28 25.6,-12.3 20.6,15.2 33.9,38.6" fill="none" stroke="@INK@" stroke-width="3.4" stroke-linejoin="round" /><polyline points="39.6,15.9 29.9,31.6" fill="none" stroke="@INK@" stroke-width="1.6" stroke-linejoin="round" stroke-linecap="round" /><polyline points="35.6,7.8 27.2,26.9" fill="none" stroke="@INK@" stroke-width="1.6" stroke-linejoin="round" stroke-linecap="round" /><polyline points="31.6,-0.2 24.6,22.2" fill="none" stroke="@INK@" stroke-width="1.6" stroke-linejoin="round" stroke-linecap="round" /><polyline points="42.3,28 27.2,-8.1" fill="none" stroke="@BONE@" stroke-width="1.4" stroke-linejoin="round" stroke-linecap="round" /><polygon points="82.4,28 102.4,-12.3 107.4,15.2 94.1,38.6" fill="none" stroke="@INK@" stroke-width="3.4" stroke-linejoin="round" /><polyline points="88.4,15.9 98.1,31.6" fill="none" stroke="@INK@" stroke-width="1.6" stroke-linejoin="round" stroke-linecap="round" /><polyline points="92.4,7.8 100.8,26.9" fill="none" stroke="@INK@" stroke-width="1.6" stroke-linejoin="round" stroke-linecap="round" /><polyline points="96.4,-0.2 103.4,22.2" fill="none" stroke="@INK@" stroke-width="1.6" stroke-linejoin="round" stroke-linecap="round" /><polyline points="85.7,28 100.8,-8.1" fill="none" stroke="@BONE@" stroke-width="1.4" stroke-linejoin="round" stroke-linecap="round" /><polygon points="42.3,81 85.7,81 80.7,121.2 64,130.8 47.3,121.2" fill="none" stroke="@INK@" stroke-width="4" stroke-linejoin="round" /><polygon points="49,85.2 79,85.2 75.7,117 52.3,117" fill="@INK@" /><polygon points="46.8,92.5 46.8,94.9 44.4,94.9 44.4,92.5" fill="@GUN_HI@" /><polygon points="46.8,92.5 46.8,94.9 44.4,94.9 44.4,92.5" fill="none" stroke="@INK@" stroke-width="0.9" stroke-linejoin="round" /><polygon points="83.6,92.5 83.6,94.9 81.2,94.9 81.2,92.5" fill="@GUN_HI@" /><polygon points="83.6,92.5 83.6,94.9 81.2,94.9 81.2,92.5" fill="none" stroke="@INK@" stroke-width="0.9" stroke-linejoin="round" /><polygon points="60.2,122.2 60.2,124.6 57.8,124.6 57.8,122.2" fill="@GUN_HI@" /><polygon points="60.2,122.2 60.2,124.6 57.8,124.6 57.8,122.2" fill="none" stroke="@INK@" stroke-width="0.9" stroke-linejoin="round" /><polygon points="70.2,122.2 70.2,124.6 67.8,124.6 67.8,122.2" fill="@GUN_HI@" /><polygon points="70.2,122.2 70.2,124.6 67.8,124.6 67.8,122.2" fill="none" stroke="@INK@" stroke-width="0.9" stroke-linejoin="round" /><polygon points="49.8,117 54.8,117 52.3,109.6" fill="@BONE@" /><polygon points="49.8,117 54.8,117 52.3,109.6" fill="none" stroke="@INK@" stroke-width="1.1" stroke-linejoin="round" /><polygon points="73.2,117 78.2,117 75.7,109.6" fill="@BONE@" /><polygon points="73.2,117 78.2,117 75.7,109.6" fill="none" stroke="@INK@" stroke-width="1.1" stroke-linejoin="round" /><polygon points="42.3,78.8 38.9,78.8 38.9,106.8 42.3,106.8" fill="none" stroke="@INK@" stroke-width="1.8" stroke-linejoin="round" /><polygon points="85.7,78.8 89.1,78.8 89.1,106.8 85.7,106.8" fill="none" stroke="@INK@" stroke-width="1.8" stroke-linejoin="round" /><polygon points="58,124.7 70,124.7 70,128.3 58,128.3" fill="@BONE@" /><polygon points="58,128.3 60.7,128.3 63.7,124.7 61,124.7" fill="@INK@" /><polygon points="64,128.3 66.7,128.3 69.7,124.7 67,124.7" fill="@INK@" /><polygon points="58,124.7 70,124.7 70,128.3 58,128.3" fill="none" stroke="@INK@" stroke-width="1.1" stroke-linejoin="round" /></g>
<g id="detail"><clipPath id="c87"><path d="M64,11 L92.4,19.5 L102.4,44.9 L94.1,76.7 L80.7,87.3 L47.3,87.3 L33.9,76.7 L25.6,44.9 L35.6,19.5 Z"/></clipPath><polygon points="64,11 92.4,19.5 102.4,44.9 94.1,76.7 80.7,87.3 47.3,87.3 33.9,76.7 25.6,44.9 35.6,19.5" fill="@CHAR@" /><path d="M64,11 L92.4,19.5 L102.4,44.9 L94.1,76.7 L80.7,87.3 L47.3,87.3 L33.9,76.7 L25.6,44.9 L35.6,19.5 Z M60,7 L88.4,15.5 L98.4,40.9 L90.1,72.7 L76.7,83.3 L43.3,83.3 L29.9,72.7 L21.6,40.9 L31.6,15.5 Z" fill="@CHAR_SH@" fill-rule="evenodd" clip-path="url(#c87)"/><path d="M64,11 L92.4,19.5 L102.4,44.9 L94.1,76.7 L80.7,87.3 L47.3,87.3 L33.9,76.7 L25.6,44.9 L35.6,19.5 Z M67.5,14.5 L95.9,23 L105.9,48.4 L97.6,80.2 L84.2,90.8 L50.8,90.8 L37.4,80.2 L29.1,48.4 L39.1,23 Z" fill="@CHAR_HI@" fill-rule="evenodd" clip-path="url(#c87)"/><polygon points="69,-3.8 119.1,-3.8 119.1,134 52.3,134 65.7,66.1 80.7,38.6" fill="@CHAR_SH@" clip-path="url(#c87)"/><polygon points="64,11 92.4,19.5 102.4,44.9 94.1,76.7 80.7,87.3 47.3,87.3 33.9,76.7 25.6,44.9 35.6,19.5" fill="none" stroke="@INK@" stroke-width="5" stroke-linejoin="round" /><polyline points="28.9,44.9 37.3,22.7 60.7,14.2" fill="none" stroke="@BONE@" stroke-width="1.8" stroke-linejoin="round" stroke-linecap="round" /><polyline points="30.6,38.6 47.3,34.3 64,36.4 80.7,34.3 97.4,38.6" fill="none" stroke="@INK@" stroke-width="1.6" stroke-linejoin="round" stroke-linecap="round" /><polyline points="35.6,74.6 44,66.1" fill="none" stroke="@INK@" stroke-width="1.6" stroke-linejoin="round" stroke-linecap="round" /><polyline points="92.4,74.6 84,66.1" fill="none" stroke="@INK@" stroke-width="1.6" stroke-linejoin="round" stroke-linecap="round" /><polyline points="64,61.9 64,85.2" fill="none" stroke="@INK@" stroke-width="1.6" stroke-linejoin="round" stroke-linecap="round" /><polygon points="36.7,39.5 36.7,41.8 34.5,41.8 34.5,39.5" fill="@GUN_HI@" /><polygon points="36.7,39.5 36.7,41.8 34.5,41.8 34.5,39.5" fill="none" stroke="@INK@" stroke-width="0.9" stroke-linejoin="round" /><polygon points="93.5,39.5 93.5,41.8 91.3,41.8 91.3,39.5" fill="@GUN_HI@" /><polygon points="93.5,39.5 93.5,41.8 91.3,41.8 91.3,39.5" fill="none" stroke="@INK@" stroke-width="0.9" stroke-linejoin="round" /><polygon points="41.7,69.2 41.7,71.5 39.5,71.5 39.5,69.2" fill="@GUN_HI@" /><polygon points="41.7,69.2 41.7,71.5 39.5,71.5 39.5,69.2" fill="none" stroke="@INK@" stroke-width="0.9" stroke-linejoin="round" /><polygon points="88.5,69.2 88.5,71.5 86.3,71.5 86.3,69.2" fill="@GUN_HI@" /><polygon points="88.5,69.2 88.5,71.5 86.3,71.5 86.3,69.2" fill="none" stroke="@INK@" stroke-width="0.9" stroke-linejoin="round" /><polygon points="51.8,79.8 51.8,82.1 49.5,82.1 49.5,79.8" fill="@GUN_HI@" /><polygon points="51.8,79.8 51.8,82.1 49.5,82.1 49.5,79.8" fill="none" stroke="@INK@" stroke-width="0.9" stroke-linejoin="round" /><polygon points="78.5,79.8 78.5,82.1 76.2,82.1 76.2,79.8" fill="@GUN_HI@" /><polygon points="78.5,79.8 78.5,82.1 76.2,82.1 76.2,79.8" fill="none" stroke="@INK@" stroke-width="0.9" stroke-linejoin="round" /><polygon points="28.5,51.3 34.4,52.1 32.7,64 26.8,63.2" fill="@INK@" /><polyline points="29.4,53.4 32.9,53.9" fill="none" stroke="@GUN_HI@" stroke-width="1.8" stroke-linejoin="round" stroke-linecap="round" /><polyline points="28.8,57.4 32.4,57.9" fill="none" stroke="@GUN_HI@" stroke-width="1.8" stroke-linejoin="round" stroke-linecap="round" /><polyline points="28.2,61.4 31.8,61.9" fill="none" stroke="@GUN_HI@" stroke-width="1.8" stroke-linejoin="round" stroke-linecap="round" /><polygon points="93.6,52.1 99.5,51.3 101.2,63.2 95.3,64" fill="@INK@" /><polyline points="95.1,53.9 98.6,53.4" fill="none" stroke="@GUN_HI@" stroke-width="1.8" stroke-linejoin="round" stroke-linecap="round" /><polyline points="95.6,57.9 99.2,57.4" fill="none" stroke="@GUN_HI@" stroke-width="1.8" stroke-linejoin="round" stroke-linecap="round" /><polyline points="96.2,61.9 99.8,61.4" fill="none" stroke="@GUN_HI@" stroke-width="1.8" stroke-linejoin="round" stroke-linecap="round" /><polygon points="55.6,44.9 38.9,40.7 40.6,59.8 52.3,59.8" fill="@INK@" /><polygon points="72.4,44.9 89.1,40.7 87.4,59.8 75.7,59.8" fill="@INK@" /><polyline points="64,13.1 60.7,25.8 65.7,34.3" fill="none" stroke="@INK@" stroke-width="4" stroke-linejoin="round" stroke-linecap="round" /><polyline points="44,28 50.6,33.3" fill="none" stroke="@INK@" stroke-width="4" stroke-linejoin="round" stroke-linecap="round" /><polyline points="84,28 77.4,33.3" fill="none" stroke="@INK@" stroke-width="4" stroke-linejoin="round" stroke-linecap="round" /><polyline points="45.4,72.7 45.4,76.5" fill="none" stroke="@SODIUM@" stroke-width="1.2" stroke-linejoin="round" stroke-linecap="round" /><polyline points="45.4,74.6 49.2,74.6" fill="none" stroke="@SODIUM@" stroke-width="1.2" stroke-linejoin="round" stroke-linecap="round" /><polyline points="49.2,72.7 49.2,76.5" fill="none" stroke="@SODIUM@" stroke-width="1.2" stroke-linejoin="round" stroke-linecap="round" /><polygon points="60.7,64 67.3,64 64,74.6" fill="@INK@" /><polygon points="49,87.3 55,87.3 52,92.8" fill="@BONE@" /><polygon points="49,87.3 55,87.3 52,92.8" fill="none" stroke="@INK@" stroke-width="1.1" stroke-linejoin="round" /><polygon points="55,87.3 61,87.3 58,92.8" fill="@BONE@" /><polygon points="55,87.3 61,87.3 58,92.8" fill="none" stroke="@INK@" stroke-width="1.1" stroke-linejoin="round" /><polygon points="61,87.3 67,87.3 64,92.8" fill="@BONE@" /><polygon points="61,87.3 67,87.3 64,92.8" fill="none" stroke="@INK@" stroke-width="1.1" stroke-linejoin="round" /><polygon points="67,87.3 73,87.3 70,92.8" fill="@BONE@" /><polygon points="67,87.3 73,87.3 70,92.8" fill="none" stroke="@INK@" stroke-width="1.1" stroke-linejoin="round" /><polygon points="73,87.3 79,87.3 76,92.8" fill="@BONE@" /><polygon points="73,87.3 79,87.3 76,92.8" fill="none" stroke="@INK@" stroke-width="1.1" stroke-linejoin="round" /><polygon points="64,16.6 68.3,19.1 68.3,24.1 64,26.6 59.7,24.1 59.7,19.1" fill="@INK@" /><polygon points="35.6,61.3 39.8,63.7 39.8,68.5 35.6,70.9 31.4,68.5 31.4,63.7" fill="@INK@" /><polygon points="92.4,61.3 96.6,63.7 96.6,68.5 92.4,70.9 88.2,68.5 88.2,63.7" fill="@INK@" /><polyline points="49,19.5 54,28" fill="none" stroke="@INK@" stroke-width="1.3" stroke-linejoin="round" stroke-linecap="round" /><polyline points="79,19.5 74,28" fill="none" stroke="@INK@" stroke-width="1.3" stroke-linejoin="round" stroke-linecap="round" /><polyline points="99.1,49.2 92.4,53.4" fill="none" stroke="@INK@" stroke-width="1.3" stroke-linejoin="round" stroke-linecap="round" /><polyline points="28.9,49.2 35.6,53.4" fill="none" stroke="@INK@" stroke-width="1.3" stroke-linejoin="round" stroke-linecap="round" /></g>
<g id="glow"><polygon points="52.3,87.3 75.7,87.3 73.2,114.9 54.8,114.9" fill="@AMBER@" /><polygon points="49.4,83.9 78.6,83.9 75.5,118.3 52.5,118.3" fill="@SODIUM@" opacity="0.35"/><polygon points="58.2,94.2 69.8,94.2 68.6,108 59.4,108" fill="@BONE@" /><polyline points="55.6,87.3 55.6,114.9" fill="none" stroke="@INK@" stroke-width="2" stroke-linejoin="round" stroke-linecap="round" /><polyline points="61.5,87.3 61.5,114.9" fill="none" stroke="@INK@" stroke-width="2" stroke-linejoin="round" stroke-linecap="round" /><polyline points="67.3,87.3 67.3,114.9" fill="none" stroke="@INK@" stroke-width="2" stroke-linejoin="round" stroke-linecap="round" /><polyline points="73.2,87.3 73.2,114.9" fill="none" stroke="@INK@" stroke-width="2" stroke-linejoin="round" stroke-linecap="round" /><polygon points="54.8,45.6 39.8,41.7 41.3,58.9 51.8,58.9" fill="@SODIUM@" opacity="0.47"/><polygon points="52.7,47.1 41.9,44.4 43,56.8 50.6,56.8" fill="@AMBER@" /><polyline points="47.3,47.3 47.3,55.3" fill="none" stroke="@BONE@" stroke-width="1.6" stroke-linejoin="round" stroke-linecap="round" /><polygon points="73.2,45.6 88.2,41.7 86.7,58.9 76.2,58.9" fill="@SODIUM@" opacity="0.47"/><polygon points="75.3,47.1 86.1,44.4 85,56.8 77.4,56.8" fill="@AMBER@" /><polyline points="80.7,47.3 80.7,55.3" fill="none" stroke="@BONE@" stroke-width="1.6" stroke-linejoin="round" stroke-linecap="round" /><polyline points="64,13.1 60.7,25.8 65.7,34.3" fill="none" stroke="@AMBER@" stroke-width="1.8" stroke-linejoin="round" stroke-linecap="round" /><polyline points="44,28 50.6,33.3" fill="none" stroke="@AMBER@" stroke-width="1.8" stroke-linejoin="round" stroke-linecap="round" /><polyline points="84,28 77.4,33.3" fill="none" stroke="@AMBER@" stroke-width="1.8" stroke-linejoin="round" stroke-linecap="round" /><polygon points="64,16.6 68.3,19.1 68.3,24.1 64,26.6 59.7,24.1 59.7,19.1" fill="@SODIUM@" opacity="0.40"/><polygon points="64,17.2 64.4,21.2 68.4,21.6 64.4,22 64,26 63.6,22 59.6,21.6 63.6,21.2" fill="@SODIUM@" opacity="0.6"/><polygon points="64,19.2 66.1,20.4 66.1,22.8 64,24 61.9,22.8 61.9,20.4" fill="@SODIUM@" /><polygon points="64,20.4 65.1,21 65.1,22.2 64,22.8 62.9,22.2 62.9,21" fill="@BONE@" /><polygon points="35.6,61.6 39.6,63.8 39.6,68.4 35.6,70.7 31.6,68.4 31.6,63.8" fill="@SODIUM@" opacity="0.40"/><polygon points="35.6,62.1 36,65.7 39.7,66.1 36,66.5 35.6,70.2 35.2,66.5 31.5,66.1 35.2,65.7" fill="@SODIUM@" opacity="0.6"/><polygon points="35.6,63.9 37.5,65 37.5,67.2 35.6,68.3 33.7,67.2 33.7,65" fill="@SODIUM@" /><polygon points="35.6,65 36.6,65.5 36.6,66.7 35.6,67.3 34.6,66.7 34.6,65.5" fill="@BONE@" /><polygon points="92.4,61.6 96.4,63.8 96.4,68.4 92.4,70.7 88.4,68.4 88.4,63.8" fill="@SODIUM@" opacity="0.40"/><polygon points="92.4,62.1 92.8,65.7 96.5,66.1 92.8,66.5 92.4,70.2 92,66.5 88.3,66.1 92,65.7" fill="@SODIUM@" opacity="0.6"/><polygon points="92.4,63.9 94.3,65 94.3,67.2 92.4,68.3 90.5,67.2 90.5,65" fill="@SODIUM@" /><polygon points="92.4,65 93.4,65.5 93.4,66.7 92.4,67.3 91.4,66.7 91.4,65.5" fill="@BONE@" /><polygon points="18.8,101.2 18.8,106.8 13.2,106.8 13.2,101.2" fill="@AMBER@" /><polygon points="18.8,101.2 18.8,106.8 13.2,106.8 13.2,101.2" fill="none" stroke="@INK@" stroke-width="1.3" stroke-linejoin="round" /><polygon points="114.8,101.2 114.8,106.8 109.2,106.8 109.2,101.2" fill="@AMBER@" /><polygon points="114.8,101.2 114.8,106.8 109.2,106.8 109.2,101.2" fill="none" stroke="@INK@" stroke-width="1.3" stroke-linejoin="round" /><polygon points="30.8,119.2 30.8,124.8 25.2,124.8 25.2,119.2" fill="@AMBER@" /><polygon points="30.8,119.2 30.8,124.8 25.2,124.8 25.2,119.2" fill="none" stroke="@INK@" stroke-width="1.3" stroke-linejoin="round" /><polygon points="102.8,121.2 102.8,126.8 97.2,126.8 97.2,121.2" fill="@AMBER@" /><polygon points="102.8,121.2 102.8,126.8 97.2,126.8 97.2,121.2" fill="none" stroke="@INK@" stroke-width="1.3" stroke-linejoin="round" /></g>
</svg>
