<?xml version="1.0" encoding="UTF-8"?>
<!-- verdant_chaser frame 5 (tell), hold 3 ticks @24fps; colours are palette.env tokens -->
<svg xmlns="http://www.w3.org/2000/svg" width="128" height="128" viewBox="0 0 128 128">
<defs>
<filter id="glowS" x="-100%" y="-100%" width="300%" height="300%"><feGaussianBlur stdDeviation="2"/></filter>
<filter id="glowM" x="-100%" y="-100%" width="300%" height="300%"><feGaussianBlur stdDeviation="5"/></filter>
<filter id="glowL" x="-100%" y="-100%" width="300%" height="300%"><feGaussianBlur stdDeviation="12"/></filter>
</defs>
<g id="base"><clipPath id="c1072"><path d="M58.5,38 L37.4,46.4 L10.8,42 L36.6,33.2 Z"/></clipPath><polygon points="58.5,38 37.4,46.4 10.8,42 36.6,33.2" fill="@BILE_HI@" /><clipPath id="c1073"><path d="M69.5,38 L91.4,33.2 L117.2,42 L90.6,46.4 Z"/></clipPath><polygon points="69.5,38 91.4,33.2 117.2,42 90.6,46.4" fill="@BILE_HI@" /><clipPath id="c1074"><path d="M58.5,51.2 L39,55.4 L16.4,45.9 L40.1,42.3 Z"/></clipPath><polygon points="58.5,51.2 39,55.4 16.4,45.9 40.1,42.3" fill="@BILE_HI@" /><clipPath id="c1075"><path d="M69.5,51.2 L87.9,42.3 L111.6,45.9 L89,55.4 Z"/></clipPath><polygon points="69.5,51.2 87.9,42.3 111.6,45.9 89,55.4" fill="@BILE_HI@" /><polyline points="55.7,38 49.3,31.8 53,33.6" fill="none" stroke="@INK@" stroke-width="3.4" stroke-linejoin="round" stroke-linecap="round" /><polyline points="55.7,38 49.3,31.8 53,33.6" fill="none" stroke="@BRUISE_HI@" stroke-width="1.4" stroke-linejoin="round" stroke-linecap="round" /><polyline points="55.7,46.8 47.4,46.4 51.1,49" fill="none" stroke="@INK@" stroke-width="3.4" stroke-linejoin="round" stroke-linecap="round" /><polyline points="55.7,46.8 47.4,46.4 51.1,49" fill="none" stroke="@BRUISE_HI@" stroke-width="1.4" stroke-linejoin="round" stroke-linecap="round" /><polyline points="55.7,55.6 51.1,54.7 54.8,59.8" fill="none" stroke="@INK@" stroke-width="3.4" stroke-linejoin="round" stroke-linecap="round" /><polyline points="55.7,55.6 51.1,54.7 54.8,59.8" fill="none" stroke="@BRUISE_HI@" stroke-width="1.4" stroke-linejoin="round" stroke-linecap="round" /><polyline points="72.3,38 78.7,31.8 75,33.6" fill="none" stroke="@INK@" stroke-width="3.4" stroke-linejoin="round" stroke-linecap="round" /><polyline points="72.3,38 78.7,31.8 75,33.6" fill="none" stroke="@BRUISE_HI@" stroke-width="1.4" stroke-linejoin="round" stroke-linecap="round" /><polyline points="72.3,46.8 80.6,46.4 76.9,49" fill="none" stroke="@INK@" stroke-width="3.4" stroke-linejoin="round" stroke-linecap="round" /><polyline points="72.3,46.8 80.6,46.4 76.9,49" fill="none" stroke="@BRUISE_HI@" stroke-width="1.4" stroke-linejoin="round" stroke-linecap="round" /><polyline points="72.3,55.6 76.9,54.7 73.2,69" fill="none" stroke="@INK@" stroke-width="3.4" stroke-linejoin="round" stroke-linecap="round" /><polyline points="72.3,55.6 76.9,54.7 73.2,69" fill="none" stroke="@BRUISE_HI@" stroke-width="1.4" stroke-linejoin="round" stroke-linecap="round" /><clipPath id="c1076"><path d="M60.3,62.2 L67.7,62.2 L66.8,108.4 L64,126 L61.2,108.4 Z"/></clipPath><polygon points="60.3,62.2 67.7,62.2 66.8,108.4 64,126 61.2,108.4" fill="@BRUISE@" /><polygon points="60.3,112.8 67.7,112.8 64,126" fill="@MAGENTA@" /></g>
<g id="shadow"><path d="M58.5,38 L37.4,46.4 L10.8,42 L36.6,33.2 Z M58.5,35 L37.4,43.4 L10.8,39 L36.6,30.2 Z" fill="@MOSS@" fill-rule="evenodd" clip-path="url(#c1072)"/><polygon points="58.5,38 10.8,42 36.6,33.2" fill="@MOSS@" clip-path="url(#c1072)"/><path d="M69.5,38 L91.4,33.2 L117.2,42 L90.6,46.4 Z M69.5,35 L91.4,30.2 L117.2,39 L90.6,43.4 Z" fill="@MOSS@" fill-rule="evenodd" clip-path="url(#c1073)"/><polygon points="69.5,38 117.2,42 90.6,46.4" fill="@MOSS@" clip-path="url(#c1073)"/><path d="M58.5,51.2 L39,55.4 L16.4,45.9 L40.1,42.3 Z M58.5,48.2 L39,52.4 L16.4,42.9 L40.1,39.3 Z" fill="@MOSS@" fill-rule="evenodd" clip-path="url(#c1074)"/><polygon points="58.5,51.2 16.4,45.9 40.1,42.3" fill="@MOSS@" clip-path="url(#c1074)"/><path d="M69.5,51.2 L87.9,42.3 L111.6,45.9 L89,55.4 Z M69.5,48.2 L87.9,39.3 L111.6,42.9 L89,52.4 Z" fill="@MOSS@" fill-rule="evenodd" clip-path="url(#c1075)"/><polygon points="69.5,51.2 111.6,45.9 89,55.4" fill="@MOSS@" clip-path="url(#c1075)"/><path d="M60.3,62.2 L67.7,62.2 L66.8,108.4 L64,126 L61.2,108.4 Z M57.3,62.2 L64.7,62.2 L63.8,108.4 L61,126 L58.2,108.4 Z" fill="@BRUISE_SH@" fill-rule="evenodd" clip-path="url(#c1076)"/><polygon points="64,62.2 67.7,62.2 66.8,108.4 64,126" fill="@BRUISE_SH@" clip-path="url(#c1076)"/><polygon points="64,112.8 67.7,112.8 64,126" fill="@MAGENTA_SH@" /></g>
<g id="highlight"><path d="M60.3,62.2 L67.7,62.2 L66.8,108.4 L64,126 L61.2,108.4 Z M63.3,65.2 L70.7,65.2 L69.8,111.4 L67,129 L64.2,111.4 Z" fill="@BRUISE_HI@" fill-rule="evenodd" clip-path="url(#c1076)"/></g>
<g id="ink"><polygon points="58.5,38 37.4,46.4 10.8,42 36.6,33.2" fill="none" stroke="@INK@" stroke-width="2.4" stroke-linejoin="round" /><polyline points="58.5,38 10.8,42" fill="none" stroke="@INK@" stroke-width="1.2" stroke-linejoin="round" stroke-linecap="round" /><polyline points="42,43.8 41.5,35" fill="none" stroke="@INK@" stroke-width="0.9" stroke-linejoin="round" stroke-linecap="round" /><polyline points="30.1,44.6 29.6,36.2" fill="none" stroke="@INK@" stroke-width="0.9" stroke-linejoin="round" stroke-linecap="round" /><polyline points="19.5,44.4 19.2,38.2" fill="none" stroke="@INK@" stroke-width="0.9" stroke-linejoin="round" stroke-linecap="round" /><polygon points="15.9,39.8 18.8,39.6 19,43 16.1,43.3" fill="@BRUISE@" /><polygon points="15.9,39.8 18.8,39.6 19,43 16.1,43.3" fill="none" stroke="@INK@" stroke-width="0.9" stroke-linejoin="round" /><polygon points="69.5,38 91.4,33.2 117.2,42 90.6,46.4" fill="none" stroke="@INK@" stroke-width="2.4" stroke-linejoin="round" /><polyline points="69.5,38 117.2,42" fill="none" stroke="@INK@" stroke-width="1.2" stroke-linejoin="round" stroke-linecap="round" /><polyline points="86.5,35 86,43.8" fill="none" stroke="@INK@" stroke-width="0.9" stroke-linejoin="round" stroke-linecap="round" /><polyline points="98.4,36.2 97.9,44.6" fill="none" stroke="@INK@" stroke-width="0.9" stroke-linejoin="round" stroke-linecap="round" /><polyline points="108.8,38.2 108.5,44.4" fill="none" stroke="@INK@" stroke-width="0.9" stroke-linejoin="round" stroke-linecap="round" /><polygon points="111.9,43.3 109,43 109.2,39.6 112.1,39.8" fill="@BRUISE@" /><polygon points="111.9,43.3 109,43 109.2,39.6 112.1,39.8" fill="none" stroke="@INK@" stroke-width="0.9" stroke-linejoin="round" /><polygon points="58.5,51.2 39,55.4 16.4,45.9 40.1,42.3" fill="none" stroke="@INK@" stroke-width="2.4" stroke-linejoin="round" /><polyline points="58.5,51.2 16.4,45.9" fill="none" stroke="@INK@" stroke-width="1.2" stroke-linejoin="round" stroke-linecap="round" /><polyline points="43.4,53.8 44.1,44.9" fill="none" stroke="@INK@" stroke-width="0.9" stroke-linejoin="round" stroke-linecap="round" /><polyline points="32.9,52.2 33.6,43.8" fill="none" stroke="@INK@" stroke-width="0.9" stroke-linejoin="round" stroke-linecap="round" /><polyline points="23.7,50 24.2,43.8" fill="none" stroke="@INK@" stroke-width="0.9" stroke-linejoin="round" stroke-linecap="round" /><polygon points="21,44.8 23.9,45.1 23.6,48.5 20.7,48.2" fill="@BRUISE@" /><polygon points="21,44.8 23.9,45.1 23.6,48.5 20.7,48.2" fill="none" stroke="@INK@" stroke-width="0.9" stroke-linejoin="round" /><polygon points="69.5,51.2 87.9,42.3 111.6,45.9 89,55.4" fill="none" stroke="@INK@" stroke-width="2.4" stroke-linejoin="round" /><polyline points="69.5,51.2 111.6,45.9" fill="none" stroke="@INK@" stroke-width="1.2" stroke-linejoin="round" stroke-linecap="round" /><polyline points="83.9,44.9 84.6,53.8" fill="none" stroke="@INK@" stroke-width="0.9" stroke-linejoin="round" stroke-linecap="round" /><polyline points="94.4,43.8 95.1,52.2" fill="none" stroke="@INK@" stroke-width="0.9" stroke-linejoin="round" stroke-linecap="round" /><polyline points="103.8,43.8 104.3,50" fill="none" stroke="@INK@" stroke-width="0.9" stroke-linejoin="round" stroke-linecap="round" /><polygon points="107.3,48.2 104.4,48.5 104.1,45.1 107,44.8" fill="@BRUISE@" /><polygon points="107.3,48.2 104.4,48.5 104.1,45.1 107,44.8" fill="none" stroke="@INK@" stroke-width="0.9" stroke-linejoin="round" /><polygon points="60.3,62.2 67.7,62.2 66.8,108.4 64,126 61.2,108.4" fill="none" stroke="@INK@" stroke-width="2.8" stroke-linejoin="round" /><polyline points="60.8,71 67.2,71" fill="none" stroke="@INK@" stroke-width="1.5" stroke-linejoin="round" stroke-linecap="round" /><polygon points="64.7,74 64.7,75.7 63.3,75.7 63.3,74" fill="@BILE_LIGHT@" /><polyline points="60.8,79.8 67.2,79.8" fill="none" stroke="@INK@" stroke-width="1.5" stroke-linejoin="round" stroke-linecap="round" /><polygon points="64.7,82.8 64.7,84.5 63.3,84.5 63.3,82.8" fill="@BILE_LIGHT@" /><polyline points="60.8,88.6 67.2,88.6" fill="none" stroke="@INK@" stroke-width="1.5" stroke-linejoin="round" stroke-linecap="round" /><polygon points="64.7,91.6 64.7,93.3 63.3,93.3 63.3,91.6" fill="@BILE_LIGHT@" /><polyline points="60.8,97.4 67.2,97.4" fill="none" stroke="@INK@" stroke-width="1.5" stroke-linejoin="round" stroke-linecap="round" /><polygon points="64.7,100.4 64.7,102.1 63.3,102.1 63.3,100.4" fill="@BILE_LIGHT@" /><polyline points="60.8,106.2 67.2,106.2" fill="none" stroke="@INK@" stroke-width="1.5" stroke-linejoin="round" stroke-linecap="round" /><polygon points="64.7,109.2 64.7,110.9 63.3,110.9 63.3,109.2" fill="@BILE_LIGHT@" /><polygon points="60.3,112.8 67.7,112.8 64,126" fill="none" stroke="@INK@" stroke-width="1.8" stroke-linejoin="round" /><polygon points="61.2,110.6 56.6,106.2 60.3,115" fill="@BONE@" /><polygon points="61.2,110.6 56.6,106.2 60.3,115" fill="none" stroke="@INK@" stroke-width="1" stroke-linejoin="round" /><polygon points="66.8,110.6 71.4,106.2 67.7,115" fill="@BONE@" /><polygon points="66.8,110.6 71.4,106.2 67.7,115" fill="none" stroke="@INK@" stroke-width="1" stroke-linejoin="round" /></g>
<g id="detail"><clipPath id="c1077"><path d="M64,27 L73.2,33.6 L73.2,57.8 L64,64.4 L54.8,57.8 L54.8,33.6 Z"/></clipPath><polygon points="64,27 73.2,33.6 73.2,57.8 64,64.4 54.8,57.8 54.8,33.6" fill="@BRUISE@" /><path d="M64,27 L73.2,33.6 L73.2,57.8 L64,64.4 L54.8,57.8 L54.8,33.6 Z M60,23 L69.2,29.6 L69.2,53.8 L60,60.4 L50.8,53.8 L50.8,29.6 Z" fill="@BRUISE_SH@" fill-rule="evenodd" clip-path="url(#c1077)"/><path d="M64,27 L73.2,33.6 L73.2,57.8 L64,64.4 L54.8,57.8 L54.8,33.6 Z M67,30 L76.2,36.6 L76.2,60.8 L67,67.4 L57.8,60.8 L57.8,36.6 Z" fill="@BRUISE_HI@" fill-rule="evenodd" clip-path="url(#c1077)"/><g clip-path="url(#c1077)" opacity="0.56"><polyline points="58.5,39.7 61.4,36.4" fill="none" stroke="@BONE@" stroke-width="1.4" stroke-linejoin="round" stroke-linecap="round" /><polyline points="59.4,42 62.2,38.6" fill="none" stroke="@BONE@" stroke-width="1" stroke-linejoin="round" stroke-linecap="round" /></g><polygon points="64,27 73.2,33.6 73.2,57.8 64,64.4" fill="@BRUISE_SH@" clip-path="url(#c1077)"/><polygon points="64,27 73.2,33.6 73.2,57.8 64,64.4 54.8,57.8 54.8,33.6" fill="none" stroke="@INK@" stroke-width="4" stroke-linejoin="round" /><polygon points="56.6,38 64,34.7 71.4,38 71.4,41.6 64,38.3 56.6,41.6" fill="@BRUISE_HI@" /><polygon points="64,34.7 71.4,38 71.4,41.6 64,38.3" fill="@BRUISE_SH@" /><polygon points="56.6,38 64,34.7 71.4,38 71.4,41.6 64,38.3 56.6,41.6" fill="none" stroke="@INK@" stroke-width="1.3" stroke-linejoin="round" /><polygon points="56.6,45.3 64,42 71.4,45.3 71.4,48.9 64,45.6 56.6,48.9" fill="@BRUISE_HI@" /><polygon points="64,42 71.4,45.3 71.4,48.9 64,45.6" fill="@BRUISE_SH@" /><polygon points="56.6,45.3 64,42 71.4,45.3 71.4,48.9 64,45.6 56.6,48.9" fill="none" stroke="@INK@" stroke-width="1.3" stroke-linejoin="round" /><polygon points="64,50.6 68.3,53.1 68.3,58.1 64,60.6 59.7,58.1 59.7,53.1" fill="@INK@" /><polyline points="55.7,35.8 55.7,53.4" fill="none" stroke="@BONE@" stroke-width="1.3" stroke-linejoin="round" stroke-linecap="round" /><clipPath id="c1078"><path d="M64,7.2 L75,16 L75,29.2 L64,33.6 L53,29.2 L53,16 Z"/></clipPath><polygon points="64,7.2 75,16 75,29.2 64,33.6 53,29.2 53,16" fill="@BILE@" /><path d="M64,7.2 L75,16 L75,29.2 L64,33.6 L53,29.2 L53,16 Z M60,3.2 L71,12 L71,25.2 L60,29.6 L49,25.2 L49,12 Z" fill="@BILE_SH@" fill-rule="evenodd" clip-path="url(#c1078)"/><path d="M64,7.2 L75,16 L75,29.2 L64,33.6 L53,29.2 L53,16 Z M67,10.2 L78,19 L78,32.2 L67,36.6 L56,32.2 L56,19 Z" fill="@BILE_HI@" fill-rule="evenodd" clip-path="url(#c1078)"/><polygon points="64,7.2 75,16 75,29.2 64,33.6" fill="@BILE_SH@" clip-path="url(#c1078)"/><polygon points="64,7.2 75,16 75,29.2 64,33.6 53,29.2 53,16" fill="none" stroke="@INK@" stroke-width="4" stroke-linejoin="round" /><polyline points="60.3,9.4 51.7,-1.6" fill="none" stroke="@INK@" stroke-width="2.6" stroke-linejoin="round" stroke-linecap="round" /><polyline points="60.3,9.4 51.7,-1.6" fill="none" stroke="@GUN_HI@" stroke-width="1.1" stroke-linejoin="round" stroke-linecap="round" /><polygon points="53.8,-3.7 53.8,0.4 49.7,0.4 49.7,-3.7" fill="@INK@" /><polygon points="60.3,9.4 60.2,-4.9 64.1,4.1" fill="@BONE@" /><polygon points="60.3,9.4 60.2,-4.9 61.2,2.3" fill="@FLASH_SH@" /><polygon points="60.3,9.4 60.2,-4.9 64.1,4.1" fill="none" stroke="@INK@" stroke-width="1.4" stroke-linejoin="round" /><polygon points="61.2,13.8 53,16 53.9,27 60.3,27" fill="@INK@" /><polyline points="67.7,9.4 76.3,-1.6" fill="none" stroke="@INK@" stroke-width="2.6" stroke-linejoin="round" stroke-linecap="round" /><polyline points="67.7,9.4 76.3,-1.6" fill="none" stroke="@GUN_HI@" stroke-width="1.1" stroke-linejoin="round" stroke-linecap="round" /><polygon points="78.3,-3.7 78.3,0.4 74.2,0.4 74.2,-3.7" fill="@INK@" /><polygon points="67.7,9.4 67.8,-4.9 63.9,4.1" fill="@BONE@" /><polygon points="67.7,9.4 67.8,-4.9 66.8,2.3" fill="@FLASH_SH@" /><polygon points="67.7,9.4 67.8,-4.9 63.9,4.1" fill="none" stroke="@INK@" stroke-width="1.4" stroke-linejoin="round" /><polygon points="66.8,13.8 75,16 74.1,27 67.7,27" fill="@INK@" /><polyline points="53.9,17.1 62.2,9.4" fill="none" stroke="@BONE@" stroke-width="1.3" stroke-linejoin="round" stroke-linecap="round" /></g>
<g id="glow"><polygon points="64,50.7 68.2,53.2 68.2,58 64,60.5 59.8,58 59.8,53.2" fill="@BILE_LIGHT@" opacity="0.39"/><polygon points="64,51.3 64.4,55.2 68.3,55.6 64.4,56 64,59.9 63.6,56 59.7,55.6 63.6,55.2" fill="@BILE_LIGHT@" opacity="0.6"/><polygon points="64,53.2 66.1,54.4 66.1,56.8 64,58 61.9,56.8 61.9,54.4" fill="@BILE_LIGHT@" /><polygon points="64,54.4 65,55 65,56.2 64,56.8 63,56.2 63,55" fill="@BONE@" /><polygon points="52.8,-2.7 52.8,-0.6 50.6,-0.6 50.6,-2.7" fill="@BILE_LIGHT@" /><polygon points="54,-4 54,0.7 49.4,0.7 49.4,-4" fill="@BILE_LIGHT@" opacity="0.3"/><polygon points="62.3,12.1 51.9,14.9 53.1,28.6 61.1,28.6" fill="@BILE_LIGHT@" opacity="0.37"/><polygon points="60.1,15.6 54.1,17.2 54.8,25.2 59.4,25.2" fill="@BILE_LIGHT@" /><polygon points="59.2,18.3 59.2,22.5 55,22.5 55,18.3" fill="@BONE@" /><polygon points="57.1,9.8 58.1,19.4 67.7,20.4 58.1,21.4 57.1,31 56.1,21.4 46.5,20.4 56.1,19.4" fill="@BILE_LIGHT@" opacity="0.55"/><polygon points="58.5,17.2 59.2,17.7 59.2,18.7 58.5,19.2 57.8,18.7 57.8,17.7" fill="@INK@" /><polygon points="55.7,21.6 56.4,22.1 56.4,23.1 55.7,23.6 55,23.1 55,22.1" fill="@INK@" /><polygon points="58.5,22.7 59.2,23.2 59.2,24.2 58.5,24.7 57.8,24.2 57.8,23.2" fill="@INK@" /><polygon points="77.4,-2.7 77.4,-0.6 75.2,-0.6 75.2,-2.7" fill="@BILE_LIGHT@" /><polygon points="78.6,-4 78.6,0.7 74,0.7 74,-4" fill="@BILE_LIGHT@" opacity="0.3"/><polygon points="65.7,12.1 76.1,14.9 74.9,28.6 66.9,28.6" fill="@BILE_LIGHT@" opacity="0.37"/><polygon points="67.9,15.6 73.9,17.2 73.2,25.2 68.6,25.2" fill="@BILE_LIGHT@" /><polygon points="73,18.3 73,22.5 68.8,22.5 68.8,18.3" fill="@BONE@" /><polygon points="70.9,9.8 71.9,19.4 81.5,20.4 71.9,21.4 70.9,31 69.9,21.4 60.3,20.4 69.9,19.4" fill="@BILE_LIGHT@" opacity="0.55"/><polygon points="69.5,17.2 70.2,17.7 70.2,18.7 69.5,19.2 68.8,18.7 68.8,17.7" fill="@INK@" /><polygon points="72.3,21.6 73,22.1 73,23.1 72.3,23.6 71.6,23.1 71.6,22.1" fill="@INK@" /><polygon points="69.5,22.7 70.2,23.2 70.2,24.2 69.5,24.7 68.8,24.2 68.8,23.2" fill="@INK@" /><polyline points="44,92 44,118" fill="none" stroke="@BILE_LIGHT@" stroke-width="1.5" stroke-linejoin="round" stroke-linecap="round" opacity="0.8"/><polyline points="54,97 54,123" fill="none" stroke="@BILE_LIGHT@" stroke-width="1.5" stroke-linejoin="round" stroke-linecap="round" opacity="0.8"/><polyline points="74,102 74,128" fill="none" stroke="@BILE_LIGHT@" stroke-width="1.5" stroke-linejoin="round" stroke-linecap="round" opacity="0.8"/><polyline points="84,92 84,118" fill="none" stroke="@BILE_LIGHT@" stroke-width="1.5" stroke-linejoin="round" stroke-linecap="round" opacity="0.8"/></g>
</svg>
