<?xml version="1.0" encoding="UTF-8"?>
<!-- verdant_chaser frame 4 (tell), hold 2 ticks @24fps; colours are palette.env tokens -->
<svg xmlns="http://www.w3.org/2000/svg" width="128" height="128" viewBox="0 0 128 128">
<defs>
<filter id="glowS" x="-100%" y="-100%" width="300%" height="300%"><feGaussianBlur stdDeviation="2"/></filter>
<filter id="glowM" x="-100%" y="-100%" width="300%" height="300%"><feGaussianBlur stdDeviation="5"/></filter>
<filter id="glowL" x="-100%" y="-100%" width="300%" height="300%"><feGaussianBlur stdDeviation="12"/></filter>
</defs>
<g id="base"><clipPath id="c197"><path d="M57.5,50 L32.2,44.9 L7.9,28 L38.2,35.3 Z"/></clipPath><polygon points="57.5,50 32.2,44.9 7.9,28 38.2,35.3" fill="@BILE_HI@" /><clipPath id="c198"><path d="M70.5,50 L89.8,35.3 L120.1,28 L95.8,44.9 Z"/></clipPath><polygon points="70.5,50 89.8,35.3 120.1,28 95.8,44.9" fill="@BILE_HI@" /><clipPath id="c199"><path d="M57.5,60.8 L40.3,73.8 L12.9,78.9 L34.6,64.1 Z"/></clipPath><polygon points="57.5,60.8 40.3,73.8 12.9,78.9 34.6,64.1" fill="@BILE_HI@" /><clipPath id="c200"><path d="M70.5,60.8 L93.4,64.1 L115.1,78.9 L87.7,73.8 Z"/></clipPath><polygon points="70.5,60.8 93.4,64.1 115.1,78.9 87.7,73.8" fill="@BILE_HI@" /><polyline points="54.3,50 46.7,45 51,46.4" fill="none" stroke="@INK@" stroke-width="3.4" stroke-linejoin="round" stroke-linecap="round" /><polyline points="54.3,50 46.7,45 51,46.4" fill="none" stroke="@BRUISE_HI@" stroke-width="1.4" stroke-linejoin="round" stroke-linecap="round" /><polyline points="54.3,57.2 44.6,52.5 48.9,59" fill="none" stroke="@INK@" stroke-width="3.4" stroke-linejoin="round" stroke-linecap="round" /><polyline points="54.3,57.2 44.6,52.5 48.9,59" fill="none" stroke="@BRUISE_HI@" stroke-width="1.4" stroke-linejoin="round" stroke-linecap="round" /><polyline points="54.3,64.4 48.9,63.7 53.2,74.3" fill="none" stroke="@INK@" stroke-width="3.4" stroke-linejoin="round" stroke-linecap="round" /><polyline points="54.3,64.4 48.9,63.7 53.2,74.3" fill="none" stroke="@BRUISE_HI@" stroke-width="1.4" stroke-linejoin="round" stroke-linecap="round" /><polyline points="73.7,50 81.3,45 77,46.4" fill="none" stroke="@INK@" stroke-width="3.4" stroke-linejoin="round" stroke-linecap="round" /><polyline points="73.7,50 81.3,45 77,46.4" fill="none" stroke="@BRUISE_HI@" stroke-width="1.4" stroke-linejoin="round" stroke-linecap="round" /><polyline points="73.7,57.2 83.4,52.5 79.1,59" fill="none" stroke="@INK@" stroke-width="3.4" stroke-linejoin="round" stroke-linecap="round" /><polyline points="73.7,57.2 83.4,52.5 79.1,59" fill="none" stroke="@BRUISE_HI@" stroke-width="1.4" stroke-linejoin="round" stroke-linecap="round" /><polyline points="73.7,64.4 79.1,63.7 74.8,68.9" fill="none" stroke="@INK@" stroke-width="3.4" stroke-linejoin="round" stroke-linecap="round" /><polyline points="73.7,64.4 79.1,63.7 74.8,68.9" fill="none" stroke="@BRUISE_HI@" stroke-width="1.4" stroke-linejoin="round" stroke-linecap="round" /><clipPath id="c201"><path d="M59.7,69.8 L68.3,69.8 L67.2,107.6 L64,117.3 L60.8,107.6 Z"/></clipPath><polygon points="59.7,69.8 68.3,69.8 67.2,107.6 64,117.3 60.8,107.6" fill="@BRUISE@" /><polygon points="59.7,111.2 68.3,111.2 64,122" fill="@MAGENTA@" /></g>
<g id="shadow"><path d="M57.5,50 L32.2,44.9 L7.9,28 L38.2,35.3 Z M57.5,47 L32.2,41.9 L7.9,25 L38.2,32.3 Z" fill="@MOSS@" fill-rule="evenodd" clip-path="url(#c197)"/><polygon points="57.5,50 7.9,28 38.2,35.3" fill="@MOSS@" clip-path="url(#c197)"/><path d="M70.5,50 L89.8,35.3 L120.1,28 L95.8,44.9 Z M70.5,47 L89.8,32.3 L120.1,25 L95.8,41.9 Z" fill="@MOSS@" fill-rule="evenodd" clip-path="url(#c198)"/><polygon points="70.5,50 120.1,28 95.8,44.9" fill="@MOSS@" clip-path="url(#c198)"/><path d="M57.5,60.8 L40.3,73.8 L12.9,78.9 L34.6,64.1 Z M57.5,57.8 L40.3,70.8 L12.9,75.9 L34.6,61.1 Z" fill="@MOSS@" fill-rule="evenodd" clip-path="url(#c199)"/><polygon points="57.5,60.8 12.9,78.9 34.6,64.1" fill="@MOSS@" clip-path="url(#c199)"/><path d="M70.5,60.8 L93.4,64.1 L115.1,78.9 L87.7,73.8 Z M70.5,57.8 L93.4,61.1 L115.1,75.9 L87.7,70.8 Z" fill="@MOSS@" fill-rule="evenodd" clip-path="url(#c200)"/><polygon points="70.5,60.8 115.1,78.9 87.7,73.8" fill="@MOSS@" clip-path="url(#c200)"/><path d="M59.7,69.8 L68.3,69.8 L67.2,107.6 L64,117.3 L60.8,107.6 Z M56.7,69.8 L65.3,69.8 L64.2,107.6 L61,117.3 L57.8,107.6 Z" fill="@BRUISE_SH@" fill-rule="evenodd" clip-path="url(#c201)"/><polygon points="64,69.8 68.3,69.8 67.2,107.6 64,117.3" fill="@BRUISE_SH@" clip-path="url(#c201)"/><polygon points="64,111.2 68.3,111.2 64,122" fill="@MAGENTA_SH@" /></g>
<g id="highlight"><path d="M59.7,69.8 L68.3,69.8 L67.2,107.6 L64,117.3 L60.8,107.6 Z M62.7,72.8 L71.3,72.8 L70.2,110.6 L67,120.3 L63.8,110.6 Z" fill="@BRUISE_HI@" fill-rule="evenodd" clip-path="url(#c201)"/></g>
<g id="ink"><polygon points="57.5,50 32.2,44.9 7.9,28 38.2,35.3" fill="none" stroke="@INK@" stroke-width="2.4" stroke-linejoin="round" /><polyline points="57.5,50 7.9,28" fill="none" stroke="@INK@" stroke-width="1.2" stroke-linejoin="round" stroke-linecap="round" /><polyline points="38.1,45.5 42.2,39.1" fill="none" stroke="@INK@" stroke-width="0.9" stroke-linejoin="round" stroke-linecap="round" /><polyline points="25.8,39.9 29.7,33.8" fill="none" stroke="@INK@" stroke-width="0.9" stroke-linejoin="round" stroke-linecap="round" /><polyline points="15.4,34.2 18.3,29.7" fill="none" stroke="@INK@" stroke-width="0.9" stroke-linejoin="round" stroke-linecap="round" /><polygon points="14.2,29.2 17.1,30.5 15.6,33 12.6,31.7" fill="@BRUISE@" /><polygon points="14.2,29.2 17.1,30.5 15.6,33 12.6,31.7" fill="none" stroke="@INK@" stroke-width="0.9" stroke-linejoin="round" /><polygon points="70.5,50 89.8,35.3 120.1,28 95.8,44.9" fill="none" stroke="@INK@" stroke-width="2.4" stroke-linejoin="round" /><polyline points="70.5,50 120.1,28" fill="none" stroke="@INK@" stroke-width="1.2" stroke-linejoin="round" stroke-linecap="round" /><polyline points="85.8,39.1 89.9,45.5" fill="none" stroke="@INK@" stroke-width="0.9" stroke-linejoin="round" stroke-linecap="round" /><polyline points="98.3,33.8 102.2,39.9" fill="none" stroke="@INK@" stroke-width="0.9" stroke-linejoin="round" stroke-linecap="round" /><polyline points="109.7,29.7 112.6,34.2" fill="none" stroke="@INK@" stroke-width="0.9" stroke-linejoin="round" stroke-linecap="round" /><polygon points="115.4,31.7 112.4,33 110.9,30.5 113.8,29.2" fill="@BRUISE@" /><polygon points="115.4,31.7 112.4,33 110.9,30.5 113.8,29.2" fill="none" stroke="@INK@" stroke-width="0.9" stroke-linejoin="round" /><polygon points="57.5,60.8 40.3,73.8 12.9,78.9 34.6,64.1" fill="none" stroke="@INK@" stroke-width="2.4" stroke-linejoin="round" /><polyline points="57.5,60.8 12.9,78.9" fill="none" stroke="@INK@" stroke-width="1.2" stroke-linejoin="round" stroke-linecap="round" /><polyline points="43.8,70.4 40,63.9" fill="none" stroke="@INK@" stroke-width="0.9" stroke-linejoin="round" stroke-linecap="round" /><polyline points="32.5,74.8 28.9,68.6" fill="none" stroke="@INK@" stroke-width="0.9" stroke-linejoin="round" stroke-linecap="round" /><polyline points="22.2,78 19.6,73.4" fill="none" stroke="@INK@" stroke-width="0.9" stroke-linejoin="round" stroke-linecap="round" /><polygon points="16.9,75.8 19.9,74.5 21.4,77.1 18.3,78.3" fill="@BRUISE@" /><polygon points="16.9,75.8 19.9,74.5 21.4,77.1 18.3,78.3" fill="none" stroke="@INK@" stroke-width="0.9" stroke-linejoin="round" /><polygon points="70.5,60.8 93.4,64.1 115.1,78.9 87.7,73.8" fill="none" stroke="@INK@" stroke-width="2.4" stroke-linejoin="round" /><polyline points="70.5,60.8 115.1,78.9" fill="none" stroke="@INK@" stroke-width="1.2" stroke-linejoin="round" stroke-linecap="round" /><polyline points="88,63.9 84.2,70.4" fill="none" stroke="@INK@" stroke-width="0.9" stroke-linejoin="round" stroke-linecap="round" /><polyline points="99.1,68.6 95.5,74.8" fill="none" stroke="@INK@" stroke-width="0.9" stroke-linejoin="round" stroke-linecap="round" /><polyline points="108.4,73.4 105.8,78" fill="none" stroke="@INK@" stroke-width="0.9" stroke-linejoin="round" stroke-linecap="round" /><polygon points="109.7,78.3 106.6,77.1 108.1,74.5 111.1,75.8" fill="@BRUISE@" /><polygon points="109.7,78.3 106.6,77.1 108.1,74.5 111.1,75.8" fill="none" stroke="@INK@" stroke-width="0.9" stroke-linejoin="round" /><polygon points="59.7,69.8 68.3,69.8 67.2,107.6 64,117.3 60.8,107.6" fill="none" stroke="@INK@" stroke-width="2.8" stroke-linejoin="round" /><polyline points="60.2,77 67.8,77" fill="none" stroke="@INK@" stroke-width="1.5" stroke-linejoin="round" stroke-linecap="round" /><polygon points="64.8,79.4 64.8,80.9 63.2,80.9 63.2,79.4" fill="@BILE_SH@" /><polyline points="60.2,84.2 67.8,84.2" fill="none" stroke="@INK@" stroke-width="1.5" stroke-linejoin="round" stroke-linecap="round" /><polygon points="64.8,86.6 64.8,88.1 63.2,88.1 63.2,86.6" fill="@BILE_SH@" /><polyline points="60.2,91.4 67.8,91.4" fill="none" stroke="@INK@" stroke-width="1.5" stroke-linejoin="round" stroke-linecap="round" /><polygon points="64.8,93.8 64.8,95.3 63.2,95.3 63.2,93.8" fill="@BILE_SH@" /><polyline points="60.2,98.6 67.8,98.6" fill="none" stroke="@INK@" stroke-width="1.5" stroke-linejoin="round" stroke-linecap="round" /><polygon points="64.8,101 64.8,102.5 63.2,102.5 63.2,101" fill="@BILE_SH@" /><polyline points="60.2,105.8 67.8,105.8" fill="none" stroke="@INK@" stroke-width="1.5" stroke-linejoin="round" stroke-linecap="round" /><polygon points="64.8,108.2 64.8,109.7 63.2,109.7 63.2,108.2" fill="@BILE_SH@" /><polygon points="59.7,111.2 68.3,111.2 64,122" fill="none" stroke="@INK@" stroke-width="1.8" stroke-linejoin="round" /><polygon points="60.8,109.4 55.4,105.8 59.7,113" fill="@BONE@" /><polygon points="60.8,109.4 55.4,105.8 59.7,113" fill="none" stroke="@INK@" stroke-width="1" stroke-linejoin="round" /><polygon points="67.2,109.4 72.6,105.8 68.3,113" fill="@BONE@" /><polygon points="67.2,109.4 72.6,105.8 68.3,113" fill="none" stroke="@INK@" stroke-width="1" stroke-linejoin="round" /></g>
<g id="detail"><clipPath id="c202"><path d="M64,41 L74.8,46.4 L74.8,66.2 L64,71.6 L53.2,66.2 L53.2,46.4 Z"/></clipPath><polygon points="64,41 74.8,46.4 74.8,66.2 64,71.6 53.2,66.2 53.2,46.4" fill="@BRUISE@" /><path d="M64,41 L74.8,46.4 L74.8,66.2 L64,71.6 L53.2,66.2 L53.2,46.4 Z M60,37 L70.8,42.4 L70.8,62.2 L60,67.6 L49.2,62.2 L49.2,42.4 Z" fill="@BRUISE_SH@" fill-rule="evenodd" clip-path="url(#c202)"/><path d="M64,41 L74.8,46.4 L74.8,66.2 L64,71.6 L53.2,66.2 L53.2,46.4 Z M67,44 L77.8,49.4 L77.8,69.2 L67,74.6 L56.2,69.2 L56.2,49.4 Z" fill="@BRUISE_HI@" fill-rule="evenodd" clip-path="url(#c202)"/><polygon points="64,41 74.8,46.4 74.8,66.2 64,71.6" fill="@BRUISE_SH@" clip-path="url(#c202)"/><polygon points="64,41 74.8,46.4 74.8,66.2 64,71.6 53.2,66.2 53.2,46.4" fill="none" stroke="@INK@" stroke-width="4" stroke-linejoin="round" /><polygon points="55.4,50 64,47.3 72.6,50 72.6,53 64,50.3 55.4,53" fill="@BRUISE_HI@" /><polygon points="64,47.3 72.6,50 72.6,53 64,50.3" fill="@BRUISE_SH@" /><polygon points="55.4,50 64,47.3 72.6,50 72.6,53 64,50.3 55.4,53" fill="none" stroke="@INK@" stroke-width="1.3" stroke-linejoin="round" /><polygon points="55.4,55.9 64,53.2 72.6,55.9 72.6,58.9 64,56.2 55.4,58.9" fill="@BRUISE_HI@" /><polygon points="64,53.2 72.6,55.9 72.6,58.9 64,56.2" fill="@BRUISE_SH@" /><polygon points="55.4,55.9 64,53.2 72.6,55.9 72.6,58.9 64,56.2 55.4,58.9" fill="none" stroke="@INK@" stroke-width="1.3" stroke-linejoin="round" /><polygon points="64,59.4 68.3,61.9 68.3,66.9 64,69.4 59.7,66.9 59.7,61.9" fill="@INK@" /><polyline points="54.3,48.2 54.3,62.6" fill="none" stroke="@BONE@" stroke-width="1.3" stroke-linejoin="round" stroke-linecap="round" /><clipPath id="c203"><path d="M64,24.8 L77,32 L77,42.8 L64,46.4 L51,42.8 L51,32 Z"/></clipPath><polygon points="64,24.8 77,32 77,42.8 64,46.4 51,42.8 51,32" fill="@BILE@" /><path d="M64,24.8 L77,32 L77,42.8 L64,46.4 L51,42.8 L51,32 Z M60,20.8 L73,28 L73,38.8 L60,42.4 L47,38.8 L47,28 Z" fill="@BILE_SH@" fill-rule="evenodd" clip-path="url(#c203)"/><path d="M64,24.8 L77,32 L77,42.8 L64,46.4 L51,42.8 L51,32 Z M67,27.8 L80,35 L80,45.8 L67,49.4 L54,45.8 L54,35 Z" fill="@BILE_HI@" fill-rule="evenodd" clip-path="url(#c203)"/><polygon points="64,24.8 77,32 77,42.8 64,46.4" fill="@BILE_SH@" clip-path="url(#c203)"/><polygon points="64,24.8 77,32 77,42.8 64,46.4 51,42.8 51,32" fill="none" stroke="@INK@" stroke-width="4" stroke-linejoin="round" /><polyline points="59.7,26.6 56.3,13" fill="none" stroke="@INK@" stroke-width="2.6" stroke-linejoin="round" stroke-linecap="round" /><polyline points="59.7,26.6 56.3,13" fill="none" stroke="@GUN_HI@" stroke-width="1.1" stroke-linejoin="round" stroke-linecap="round" /><polygon points="58.3,11 58.3,15.1 54.2,15.1 54.2,11" fill="@INK@" /><polygon points="59.7,26.6 51.1,17.3 60.1,20.9" fill="@BONE@" /><polygon points="59.7,26.6 51.1,17.3 56.5,22" fill="@FLASH_SH@" /><polygon points="59.7,26.6 51.1,17.3 60.1,20.9" fill="none" stroke="@INK@" stroke-width="1.4" stroke-linejoin="round" /><polygon points="60.8,30.2 51,32 52.1,41 59.7,41" fill="@INK@" /><polyline points="68.3,26.6 71.7,13" fill="none" stroke="@INK@" stroke-width="2.6" stroke-linejoin="round" stroke-linecap="round" /><polyline points="68.3,26.6 71.7,13" fill="none" stroke="@GUN_HI@" stroke-width="1.1" stroke-linejoin="round" stroke-linecap="round" /><polygon points="73.8,11 73.8,15.1 69.7,15.1 69.7,11" fill="@INK@" /><polygon points="68.3,26.6 76.9,17.3 67.9,20.9" fill="@BONE@" /><polygon points="68.3,26.6 76.9,17.3 71.5,22" fill="@FLASH_SH@" /><polygon points="68.3,26.6 76.9,17.3 67.9,20.9" fill="none" stroke="@INK@" stroke-width="1.4" stroke-linejoin="round" /><polygon points="67.2,30.2 77,32 75.9,41 68.3,41" fill="@INK@" /><polyline points="52.1,32.9 61.8,26.6" fill="none" stroke="@BONE@" stroke-width="1.3" stroke-linejoin="round" stroke-linecap="round" /></g>
<g id="glow"><polygon points="64,62 66.1,63.2 66.1,65.6 64,66.8 61.9,65.6 61.9,63.2" fill="@BILE_SH@" /><polygon points="57.4,12 57.4,14.1 55.2,14.1 55.2,12" fill="@BILE_SH@" /><polygon points="59.4,31.7 52.4,33 53.2,39.5 58.6,39.5" fill="@BILE_SH@" /><polygon points="57.5,33 58.4,33.4 58.4,34.2 57.5,34.6 56.7,34.2 56.7,33.4" fill="@BILE_LIGHT@" /><polygon points="54.3,36.6 55.1,37 55.1,37.8 54.3,38.2 53.4,37.8 53.4,37" fill="@BILE_LIGHT@" /><polygon points="57.5,37.5 58.4,37.9 58.4,38.7 57.5,39.1 56.7,38.7 56.7,37.9" fill="@BILE_LIGHT@" /><polygon points="72.8,12 72.8,14.1 70.6,14.1 70.6,12" fill="@BILE_SH@" /><polygon points="68.6,31.7 75.6,33 74.8,39.5 69.4,39.5" fill="@BILE_SH@" /><polygon points="70.5,33 71.3,33.4 71.3,34.2 70.5,34.6 69.6,34.2 69.6,33.4" fill="@BILE_LIGHT@" /><polygon points="73.7,36.6 74.6,37 74.6,37.8 73.7,38.2 72.9,37.8 72.9,37" fill="@BILE_LIGHT@" /><polygon points="70.5,37.5 71.3,37.9 71.3,38.7 70.5,39.1 69.6,38.7 69.6,37.9" fill="@BILE_LIGHT@" /></g>
</svg>
