<svg xmlns="http://www.w3.org/2000/svg" viewBox="0 0 128 128" width="128" height="128"><!-- hold: 3 ticks @24fps --><defs><filter id="glow" filterUnits="userSpaceOnUse" x="-32" y="-32" width="192" height="192"><feGaussianBlur stdDeviation="3.2"/></filter><clipPath id="c1"><polygon points="269.49,-59.73 -128.94,219.26 10.55,418.48 408.99,139.49"/></clipPath><clipPath id="h2"><polygon points="64,10 72,58 67,114 61,114 56,58"/></clipPath></defs><polyline points="72.6,26.01 77,6.56" fill="none" stroke="#6EF2EE" stroke-width="3.2" stroke-linecap="butt" stroke-linejoin="round"/><polyline points="89.31,40.47 105.93,25.01" fill="none" stroke="#6EF2EE" stroke-width="3.2" stroke-linecap="butt" stroke-linejoin="round"/><polyline points="96.93,44.08 113.42,34.11" fill="none" stroke="#6EF2EE" stroke-width="3.2" stroke-linecap="butt" stroke-linejoin="round"/><polyline points="102.56,64.38 124.04,64.6" fill="none" stroke="#6EF2EE" stroke-width="3.2" stroke-linecap="butt" stroke-linejoin="round"/><polyline points="99.01,74.17 115.95,79.09" fill="none" stroke="#6EF2EE" stroke-width="3.2" stroke-linecap="butt" stroke-linejoin="round"/><polyline points="86.99,92.68 97.84,106.22" fill="none" stroke="#6EF2EE" stroke-width="3.2" stroke-linecap="butt" stroke-linejoin="round"/><polyline points="66.56,98.25 67.98,117.31" fill="none" stroke="#6EF2EE" stroke-width="3.2" stroke-linecap="butt" stroke-linejoin="round"/><polyline points="55.36,97.15 48.46,123.64" fill="none" stroke="#6EF2EE" stroke-width="3.2" stroke-linecap="butt" stroke-linejoin="round"/><polyline points="44.65,93.27 30.05,115.35" fill="none" stroke="#6EF2EE" stroke-width="3.2" stroke-linecap="butt" stroke-linejoin="round"/><polyline points="29.53,78.87 11.61,86.6" fill="none" stroke="#6EF2EE" stroke-width="3.2" stroke-linecap="butt" stroke-linejoin="round"/><polyline points="29.1,59.68 3.97,56.57" fill="none" stroke="#6EF2EE" stroke-width="3.2" stroke-linecap="butt" stroke-linejoin="round"/><polyline points="31.11,52.36 8.66,44.42" fill="none" stroke="#6EF2EE" stroke-width="3.2" stroke-linecap="butt" stroke-linejoin="round"/><polyline points="45.46,33.43 35.01,16.19" fill="none" stroke="#6EF2EE" stroke-width="3.2" stroke-linecap="butt" stroke-linejoin="round"/><polyline points="58.65,30.15 54.69,5.14" fill="none" stroke="#6EF2EE" stroke-width="3.2" stroke-linecap="butt" stroke-linejoin="round"/><polygon points="64,34 85.21,42.79 94,64 85.21,85.21 64,94 42.79,85.21 34,64 42.79,42.79" fill="none" stroke="#F4EAD4" stroke-width="3" stroke-linejoin="round" opacity="0.8"/></svg>
