<svg xmlns="http://www.w3.org/2000/svg" viewBox="0 0 128 128" width="128" height="128"><!-- hold: 1 ticks @24fps --><defs><filter id="glow" filterUnits="userSpaceOnUse" x="-32" y="-32" width="192" height="192"><feGaussianBlur stdDeviation="3.2"/></filter></defs><polygon points="64,-4 67.85,37.88 89.72,23 71.7,50 89.72,77 67.85,62.12 64,104 60.15,62.12 38.28,77 56.3,50 38.28,23 60.15,37.88" fill="#F2862B" stroke="#140C14" stroke-width="4" stroke-linejoin="round"/><polygon points="64,20 65.8,43.07 75.69,35 67.6,50 75.69,65 65.8,56.93 64,80 62.2,56.93 52.31,65 60.4,50 52.31,35 62.2,43.07" fill="#F4EAD4"/><polyline points="77.39,33.84 84.89,16.93" fill="none" stroke="#FFB43C" stroke-width="3" stroke-linecap="butt" stroke-linejoin="round"/><polyline points="91.58,50.05 112.25,39.6" fill="none" stroke="#FFB43C" stroke-width="3" stroke-linecap="butt" stroke-linejoin="round"/><polyline points="96.79,64.02 122.6,64.04" fill="none" stroke="#FFB43C" stroke-width="3" stroke-linecap="butt" stroke-linejoin="round"/><polyline points="91.51,80.12 108.41,90.02" fill="none" stroke="#FFB43C" stroke-width="3" stroke-linecap="butt" stroke-linejoin="round"/><polyline points="72.3,93.25 78.28,114.35" fill="none" stroke="#FFB43C" stroke-width="3" stroke-linecap="butt" stroke-linejoin="round"/><polyline points="55.97,98.72 50.65,121.74" fill="none" stroke="#FFB43C" stroke-width="3" stroke-linecap="butt" stroke-linejoin="round"/><polyline points="35.46,85.9 22.17,96.11" fill="none" stroke="#FFB43C" stroke-width="3" stroke-linecap="butt" stroke-linejoin="round"/><polyline points="32.01,69.62 14.55,72.7" fill="none" stroke="#FFB43C" stroke-width="3" stroke-linecap="butt" stroke-linejoin="round"/><polyline points="32.94,46.29 12.16,34.44" fill="none" stroke="#FFB43C" stroke-width="3" stroke-linecap="butt" stroke-linejoin="round"/><polyline points="60.5,33.39 57.81,9.82" fill="none" stroke="#FFB43C" stroke-width="3" stroke-linecap="butt" stroke-linejoin="round"/></svg>
