<svg xmlns="http://www.w3.org/2000/svg" viewBox="0 0 128 128" width="128" height="128"><defs><clipPath id="c1"><polygon points="163.85,-13.88 -1.37,101.8 56.47,184.41 221.69,68.73"/></clipPath><clipPath id="c2"><polygon points="127.78,-9.43 -37.43,106.25 20.41,188.86 185.63,73.17"/></clipPath><clipPath id="c3"><polygon points="176.61,-2.8 11.4,112.88 69.24,195.49 234.45,79.8"/></clipPath><clipPath id="c4"><polygon points="118.07,4.47 -47.14,120.15 10.7,202.76 175.91,87.08"/></clipPath><clipPath id="c5"><polygon points="182.26,18.62 17.04,134.3 74.88,216.91 240.1,101.23"/></clipPath><clipPath id="c6"><polygon points="116.64,22.1 -48.58,137.78 9.27,220.39 174.48,104.7"/></clipPath><clipPath id="c7"><polygon points="94.42,45.68 35.44,86.98 56.09,116.47 115.07,75.17"/></clipPath></defs><polygon points="68.22,63.2 65.46,49.72 73.06,42.67 77.79,33.84 85.03,26.56 94.58,20.72 86.31,45.01" fill="#0b0a1c" stroke="#0b0a1c" stroke-width="4" stroke-linejoin="round"/><polygon points="68.22,63.2 65.46,49.72 73.06,42.67 77.79,33.84 85.03,26.56 94.58,20.72 86.31,45.01" fill="#f2ead8"/><g clip-path="url(#c1)"><polygon points="68.22,63.2 65.46,49.72 73.06,42.67 77.79,33.84 85.03,26.56 94.58,20.72 86.31,45.01" fill="#b4a890"/></g><polyline points="68.22,63.2 94.58,20.72" fill="none" stroke="#b4a890" stroke-width="1.6" stroke-linecap="round" stroke-linejoin="round"/><polygon points="59.46,63.42 46,60.55 42.56,50.77 36.36,42.9 32.59,33.36 31.05,22.27 50.01,39.56" fill="#0b0a1c" stroke="#0b0a1c" stroke-width="4" stroke-linejoin="round"/><polygon points="59.46,63.42 46,60.55 42.56,50.77 36.36,42.9 32.59,33.36 31.05,22.27 50.01,39.56" fill="#f2ead8"/><g clip-path="url(#c2)"><polygon points="59.46,63.42 46,60.55 42.56,50.77 36.36,42.9 32.59,33.36 31.05,22.27 50.01,39.56" fill="#b4a890"/></g><polyline points="59.46,63.42 31.05,22.27" fill="none" stroke="#b4a890" stroke-width="1.6" stroke-linecap="round" stroke-linejoin="round"/><polygon points="71.02,66.16 75.27,53.08 85.35,50.68 93.82,45.33 103.71,42.56 114.9,42.19 95.73,59.25" fill="#0b0a1c" stroke="#0b0a1c" stroke-width="4" stroke-linejoin="round"/><polygon points="71.02,66.16 75.27,53.08 85.35,50.68 93.82,45.33 103.71,42.56 114.9,42.19 95.73,59.25" fill="#f2ead8"/><g clip-path="url(#c3)"><polygon points="71.02,66.16 75.27,53.08 85.35,50.68 93.82,45.33 103.71,42.56 114.9,42.19 95.73,59.25" fill="#b4a890"/></g><polyline points="71.02,66.16 114.9,42.19" fill="none" stroke="#b4a890" stroke-width="1.6" stroke-linecap="round" stroke-linejoin="round"/><polygon points="56.79,66.52 43.68,70.69 35.86,63.89 26.58,60.11 18.58,53.69 11.76,44.8 36.79,50.46" fill="#0b0a1c" stroke="#0b0a1c" stroke-width="4" stroke-linejoin="round"/><polygon points="56.79,66.52 43.68,70.69 35.86,63.89 26.58,60.11 18.58,53.69 11.76,44.8 36.79,50.46" fill="#f2ead8"/><g clip-path="url(#c4)"><polygon points="56.79,66.52 43.68,70.69 35.86,63.89 26.58,60.11 18.58,53.69 11.76,44.8 36.79,50.46" fill="#b4a890"/></g><polyline points="56.79,66.52 11.76,44.8" fill="none" stroke="#b4a890" stroke-width="1.6" stroke-linecap="round" stroke-linejoin="round"/><polygon points="71.87,71.44 83.41,63.95 92.75,68.44 102.7,69.62 112.12,73.69 121.05,80.45 95.42,81.63" fill="#0b0a1c" stroke="#0b0a1c" stroke-width="4" stroke-linejoin="round"/><polygon points="71.87,71.44 83.41,63.95 92.75,68.44 102.7,69.62 112.12,73.69 121.05,80.45 95.42,81.63" fill="#f2ead8"/><g clip-path="url(#c5)"><polygon points="71.87,71.44 83.41,63.95 92.75,68.44 102.7,69.62 112.12,73.69 121.05,80.45 95.42,81.63" fill="#b4a890"/></g><polyline points="71.87,71.44 121.05,80.45" fill="none" stroke="#b4a890" stroke-width="1.6" stroke-linecap="round" stroke-linejoin="round"/><polygon points="56.03,70.72 46.93,81.04 36.72,79.22 26.82,80.75 16.65,79.35 6.24,75.23 30.61,67.23" fill="#0b0a1c" stroke="#0b0a1c" stroke-width="4" stroke-linejoin="round"/><polygon points="56.03,70.72 46.93,81.04 36.72,79.22 26.82,80.75 16.65,79.35 6.24,75.23 30.61,67.23" fill="#f2ead8"/><g clip-path="url(#c6)"><polygon points="56.03,70.72 46.93,81.04 36.72,79.22 26.82,80.75 16.65,79.35 6.24,75.23 30.61,67.23" fill="#b4a890"/></g><polyline points="56.03,70.72 6.24,75.23" fill="none" stroke="#b4a890" stroke-width="1.6" stroke-linecap="round" stroke-linejoin="round"/><polygon points="64,70.72 73.4,71.73 79.22,74.37 79.22,77.63 73.4,80.27 64,81.28 54.6,80.27 48.78,77.63 48.78,74.37 54.6,71.73" fill="none" stroke="#0b0a1c" stroke-width="8" stroke-linejoin="round"/><polygon points="64,70.72 73.4,71.73 79.22,74.37 79.22,77.63 73.4,80.27 64,81.28 54.6,80.27 48.78,77.63 48.78,74.37 54.6,71.73" fill="none" stroke="#ffb21f" stroke-width="4" stroke-linejoin="round"/><polygon points="64,56 71,66 64,72 57,66" fill="#0b0a1c" stroke="#0b0a1c" stroke-width="3.5" stroke-linejoin="round"/><polygon points="64,56 71,66 64,72 57,66" fill="#f2ead8"/><g clip-path="url(#c7)"><polygon points="64,56 71,66 64,72 57,66" fill="#b4a890"/></g><polygon points="64,69.03 76.41,70.36 84.09,73.85 84.09,78.15 76.41,81.64 64,82.97 51.59,81.64 43.91,78.15 43.91,73.85 51.59,70.36" fill="#fff0a8" opacity="0.16"/><polygon points="64,70.72 73.4,71.73 79.22,74.37 79.22,77.63 73.4,80.27 64,81.28 54.6,80.27 48.78,77.63 48.78,74.37 54.6,71.73" fill="#ffb21f" stroke="#0b0a1c" stroke-width="3.2" stroke-linejoin="round"/><polygon points="64,73.36 68.7,73.86 71.61,75.18 71.61,76.82 68.7,78.14 64,78.64 59.3,78.14 56.39,76.82 56.39,75.18 59.3,73.86" fill="#fff8ec"/><polygon points="57.65,16.12 58.78,20.99 63.65,22.12 58.78,23.26 57.65,28.12 56.52,23.26 51.65,22.12 56.52,20.99" fill="#fff0a8" stroke="#0b0a1c" stroke-width="1.6" stroke-linejoin="round"/><polygon points="30.1,37.69 31.23,42.56 36.1,43.69 31.23,44.82 30.1,49.69 28.97,44.82 24.1,43.69 28.97,42.56" fill="#fff0a8" stroke="#0b0a1c" stroke-width="1.6" stroke-linejoin="round"/><polygon points="60.71,26.12 61.84,30.98 66.71,32.12 61.84,33.25 60.71,38.12 59.58,33.25 54.71,32.12 59.58,30.98" fill="#fff0a8" stroke="#0b0a1c" stroke-width="1.6" stroke-linejoin="round"/></svg>
