<svg xmlns="http://www.w3.org/2000/svg" viewBox="0 0 128 128" width="128" height="128"><!-- hold: 1 ticks @24fps --><defs><filter id="glow" filterUnits="userSpaceOnUse" x="-32" y="-32" width="192" height="192"><feGaussianBlur stdDeviation="3.2"/></filter></defs><polygon points="75.97,31.11 73.19,56.29 98.47,57.92 75.28,68.1 86.5,90.81 66.08,75.82 52.03,96.89 54.81,71.71 29.53,70.08 52.72,59.9 41.5,37.19 61.92,52.18" fill="#FFB43C" stroke="#140C14" stroke-width="4" stroke-linejoin="round"/><polygon points="69.47,48.96 68.6,60.14 79.76,61.22 69.64,66.05 74.28,76.26 65.04,69.91 58.53,79.04 59.4,67.86 48.24,66.78 58.36,61.95 53.72,51.74 62.96,58.09" fill="#F4EAD4"/><polyline points="70.91,29.54 73.13,18.48" fill="none" stroke="#F4EAD4" stroke-width="2.4" stroke-linecap="butt" stroke-linejoin="round"/><polyline points="94.86,51.46 106.49,46.74" fill="none" stroke="#F4EAD4" stroke-width="2.4" stroke-linecap="butt" stroke-linejoin="round"/><polyline points="89.52,84.09 106.09,97.13" fill="none" stroke="#F4EAD4" stroke-width="2.4" stroke-linecap="butt" stroke-linejoin="round"/><polyline points="74.37,92.98 80.5,110.13" fill="none" stroke="#F4EAD4" stroke-width="2.4" stroke-linecap="butt" stroke-linejoin="round"/><polyline points="58.58,95.46 56.15,109.58" fill="none" stroke="#F4EAD4" stroke-width="2.4" stroke-linecap="butt" stroke-linejoin="round"/><polyline points="34.19,78.19 17.61,86.08" fill="none" stroke="#F4EAD4" stroke-width="2.4" stroke-linecap="butt" stroke-linejoin="round"/><polyline points="32.09,55.1 20.75,51.94" fill="none" stroke="#F4EAD4" stroke-width="2.4" stroke-linecap="butt" stroke-linejoin="round"/><polyline points="45.95,38.91 35.06,23.77" fill="none" stroke="#F4EAD4" stroke-width="2.4" stroke-linecap="butt" stroke-linejoin="round"/></svg>
